<?xml version="1.0" encoding="UTF-8" standalone="no"?>
<svg width="64px" height="64px" viewBox="0 0 64 64" version="1.1" xmlns="http://www.w3.org/2000/svg" xmlns:xlink="http://www.w3.org/1999/xlink">
    <!-- Generator: Sketch 46.2 (44496) - http://www.bohemiancoding.com/sketch -->
    <title>linux</title>
    <desc>Created with Sketch.</desc>
    <defs>
        <linearGradient x1="50%" y1="0%" x2="50%" y2="100%" id="linearGradient-1">
            <stop stop-color="#FFC82B" offset="0%"></stop>
            <stop stop-color="#FFA504" offset="100%"></stop>
        </linearGradient>
    </defs>
    <g id="Page-1" stroke="none" stroke-width="1" fill="none" fill-rule="evenodd">
        <g id="linux">
            <circle id="Oval-6" fill="url(#linearGradient-1)" cx="32" cy="32" r="28"></circle>
            <path d="M4.00437457,32.5 C4.00146223,32.6663171 4,32.8329878 4,33 C4,48.463973 16.536027,61 32,61 C47.463973,61 60,48.463973 60,33 C60,32.8329878 59.9985378,32.6663171 59.9956254,32.5 C59.7288782,47.7332911 47.2969608,60 32,60 C16.7030392,60 4.27112183,47.7332911 4.00437457,32.5 Z" id="Combined-Shape" fill="#000000" opacity="0.2"></path>
            <path d="M4.00437457,32.5 C4.00146223,32.3336829 4,32.1670122 4,32 C4,16.536027 16.536027,4 32,4 C47.463973,4 60,16.536027 60,32 C60,32.1670122 59.9985378,32.3336829 59.9956254,32.5 C59.7288782,17.2667089 47.2969608,5 32,5 C16.7030392,5 4.27112183,17.2667089 4.00437457,32.5 Z" id="Combined-Shape" fill="#FFFFFF" opacity="0.199999988"></path>
            <g id="Oval-12-+-Combined-Shape-Mask" transform="translate(31.500000, 18.500000)"></g>
            <path d="M42.6334483,26.4332758 C40.6272171,22.6088825 36.6182771,20 32,20 C25.372583,20 20,25.372583 20,32 C20,38.627417 25.372583,44 32,44 C36.6182771,44 40.6272171,41.3911175 42.6334483,37.5667242 L39.9489565,36.2244782 C38.4357871,39.0657967 35.4437723,41 32,41 C27.0294373,41 23,36.9705627 23,32 C23,27.0294373 27.0294373,23 32,23 C35.4437723,23 38.4357871,24.9342033 39.9489565,27.7755218 L42.6334483,26.4332758 Z" id="Combined-Shape" fill="#FFFFFF" opacity="0.300000012"></path>
            <path d="M19.9791847,20.9791847 C23.0555796,17.9027898 27.3055796,16 32,16 C38.5757692,16 44.279525,19.7335329 47.1071125,25.1964437 L42.6334483,27.4332758 C40.6272171,23.6088825 36.6182771,21 32,21 C25.372583,21 20,26.372583 20,33 C20,39.627417 25.372583,45 32,45 C35.3617263,45 38.4005866,43.6176461 40.5791606,41.3903585 L33.0980762,37.0711524 L32,32.9730762 L36.0980762,31.875 L48.0034757,38.7485856 C45.6467639,45.3085159 39.3712594,50 32,50 C22.6111593,50 15,42.3888407 15,33 C15,28.3055796 16.9027898,24.0555796 19.9791847,20.9791847 Z" id="Combined-Shape" fill="#000000" opacity="0.200000003"></path>
            <path d="M19.9791847,19.9791847 C23.0555796,16.9027898 27.3055796,15 32,15 C38.5757692,15 44.279525,18.7335329 47.1071125,24.1964437 L42.6334483,26.4332758 C40.6272171,22.6088825 36.6182771,20 32,20 C25.372583,20 20,25.372583 20,32 C20,38.627417 25.372583,44 32,44 C35.3617263,44 38.4005866,42.6176461 40.5791606,40.3903585 L33.0980762,36.0711524 L32,31.9730762 L36.0980762,30.875 L48.0034757,37.7485856 C45.6467639,44.3085159 39.3712594,49 32,49 C22.6111593,49 15,41.3888407 15,32 C15,27.3055796 16.9027898,23.0555796 19.9791847,19.9791847 Z" id="Combined-Shape" fill="#FFFFFF"></path>
        </g>
    </g>
</svg>